<svg width="48" height="48" viewBox="0 0 48 48" fill="none" xmlns="http://www.w3.org/2000/svg">
<rect width="48" height="48" rx="24" fill="#17030C"/>
<path d="M24 14.3333C26.9455 14.3333 29.3333 11.9455 29.3333 9C29.3333 6.05448 26.9455 3.66667 24 3.66667C21.0545 3.66667 18.6667 6.05448 18.6667 9C18.6667 11.9455 21.0545 14.3333 24 14.3333ZM25 24V9H23V24H25Z" fill="#7FF1BB"/>
<path d="M32.3716 28.8333C30.8988 31.3842 31.7728 34.646 34.3237 36.1188C36.8746 37.5916 40.1364 36.7176 41.6092 34.1667C43.0819 31.6158 42.2079 28.354 39.657 26.8812C37.1062 25.4084 33.8443 26.2824 32.3716 28.8333ZM23.5 24.866L36.4904 32.366L37.4904 30.634L24.5 23.134L23.5 24.866Z" fill="#E72267"/>
<path d="M15.6189 28.8334C14.1461 26.2825 10.8843 25.4085 8.33343 26.8813C5.78254 28.354 4.90854 31.6159 6.3813 34.1668C7.85406 36.7176 11.1159 37.5916 13.6668 36.1189C16.2177 34.6461 17.0917 31.3843 15.6189 28.8334ZM23.4904 23.134L10.5001 30.6341L11.5001 32.3661L24.4904 24.866L23.4904 23.134Z" fill="#4BA5EB"/>
<circle cx="24" cy="24" r="4" fill="#FDEFF4"/>
</svg>
